<svg xmlns="http://www.w3.org/2000/svg" viewBox="0 0 397 397"><path d="M302.14,257.52a13,13,0,1,0,13.42,13A13.21,13.21,0,0,0,302.14,257.52Z" transform="translate(-50.5 -49)" style="fill:#fff"/><path d="M197.87,257.52a13,13,0,1,0,13.42,13A13.22,13.22,0,0,0,197.87,257.52Z" transform="translate(-50.5 -49)" style="fill:#fff"/><path d="M284.15,299h-68.3c-2.25.89-3.95,2.64-3.95,5a3.88,3.88,0,0,0,3.95,4h2.89l5.78,16.2,4.57-16.2H271l5.78,16.2,4.57-16.2h2.79a3.88,3.88,0,0,0,4-4C288.1,301.64,286.41,299.89,284.15,299Z" transform="translate(-50.5 -49)" style="fill:#fff"/><path d="M250,401.85,99.12,289,137,232.37V106.18L219.5,209h61.06L363,106.18V232.37L400.88,289ZM120.89,282.53l125.09,95,125.13-95L340,235.25V153.61L284.31,224H207.65L152,153.61v81.65Z" transform="translate(-50.5 -49)" style="fill:#fff"/><circle cx="198.5" cy="198.5" r="194.5" style="fill:none;stroke:#fff;stroke-miterlimit:10;stroke-width:8px"/></svg>