<svg xmlns="http://www.w3.org/2000/svg" xmlns:xlink="http://www.w3.org/1999/xlink" viewBox="0 0 464.26 455.67"><defs><linearGradient id="a" x1="19.06" y1="487.57" x2="19.06" y2="483.87" gradientTransform="matrix(9.49, -11.72, -11.72, -9.49, 5865.73, 5081.15)" gradientUnits="userSpaceOnUse"><stop offset="0" stop-color="#00efc8"/><stop offset="1" stop-color="#2c94ea"/></linearGradient><linearGradient id="b" x1="12.45" y1="495.74" x2="12.45" y2="492.03" gradientTransform="matrix(9.49, -11.72, -11.72, -9.49, 5807.56, 5081.15)" xlink:href="#a"/><linearGradient id="c" x1="5.77" y1="497.75" x2="5.77" y2="494" gradientTransform="matrix(26.93, -10.49, -33.26, -8.5, 16587.82, 4610.53)" xlink:href="#a"/><linearGradient id="d" x1="8.14" y1="501.6" x2="8.14" y2="490" gradientTransform="matrix(25.17, -30.55, -31.09, -24.74, 15488.07, 12722.74)" xlink:href="#a"/></defs><path d="M356.09,221.88A27.92,27.92,0,1,0,384,249.8,28,28,0,0,0,356.09,221.88Z" transform="translate(-15.97 -17.33)" style="fill:url(#a)"/><path d="M139.2,221.88a27.92,27.92,0,1,0,27.92,27.92A28,28,0,0,0,139.2,221.88Z" transform="translate(-15.97 -17.33)" style="fill:url(#b)"/><path d="M318.68,311.2H176.61c-4.69,1.84-8.22,5.44-8.22,10.22a8,8,0,0,0,8.22,8.3h6l12,33.33,9.51-33.33h87.17l12,33.34,9.5-33.34h5.8a8,8,0,0,0,8.22-8.3C326.89,316.64,323.37,313,318.68,311.2Z" transform="translate(-15.97 -17.33)" style="fill:url(#c)"/><path d="M248.11,473,16,299.08l58.29-87.27V17.33L201.18,175.79h93.94L422,17.33V211.81l58.27,87.27ZM49.48,289.17,242.27,435.65,435.13,289.17,387.19,216.3V90.48L301.34,199H183.2L97.44,90.48V216.32Z" transform="translate(-15.97 -17.33)" style="fill:url(#d)"/></svg>